<svg version="1.1" id="Layer_1" xmlns="http://www.w3.org/2000/svg" xmlns:xlink="http://www.w3.org/1999/xlink" x="0px" y="0px"
	 width="100%" viewBox="0 0 512 512" enable-background="new 0 0 512 512" xml:space="preserve">
<path fill="#000000" opacity="1.000000" stroke="none" 
	d="
M124.764496,370.150024 
	C90.001663,372.151093 55.670380,370.881897 21.354910,371.209198 
	C18.431910,371.237061 15.637669,371.447388 15.595209,367.067474 
	C15.557733,363.201721 15.607977,360.334229 20.791502,360.145020 
	C26.913950,359.921539 33.038593,359.124603 38.965958,357.247375 
	C42.254681,356.205811 43.741222,354.468536 43.735699,350.775360 
	C43.642239,288.283783 43.636257,225.791962 43.764805,163.300507 
	C43.773056,159.289062 41.889297,157.834564 38.592354,157.483704 
	C33.309593,156.921509 28.021141,155.801773 22.676008,156.855835 
	C17.812586,157.814896 16.222799,155.379532 15.755661,150.933319 
	C15.251136,146.131271 18.201126,146.060455 21.568708,145.638000 
	C39.057430,143.444122 56.567039,141.368240 74.152626,140.257416 
	C112.461136,137.837585 150.497025,138.475388 186.323029,154.825653 
	C218.056824,169.308319 240.769363,192.149643 247.957047,227.256775 
	C257.994415,276.282776 240.883896,315.223145 201.389847,344.776367 
	C180.667175,360.283020 156.739334,367.335602 131.165695,369.352081 
	C129.178894,369.508728 127.206917,369.853455 124.764496,370.150024 
M187.745438,331.253510 
	C196.408646,324.019836 203.600021,315.587189 208.690308,305.456665 
	C217.306351,288.309235 219.558899,270.231140 217.863174,251.193024 
	C214.835587,217.201462 198.973175,191.263962 170.062042,173.605606 
	C141.393539,156.095383 109.789787,152.941498 77.095985,156.443481 
	C73.474480,156.831390 72.260498,158.700836 72.267723,162.452835 
	C72.383461,222.581787 72.387894,282.711090 72.269135,342.840027 
	C72.261078,346.914001 73.661568,348.656342 77.497993,349.828857 
	C95.179779,355.232910 113.143486,355.812195 131.341339,353.742279 
	C151.940857,351.399200 170.856796,344.833435 187.745438,331.253510 
z"/>
<path fill="#000000" opacity="1.000000" stroke="none" 
	d="
M471.174011,248.000000 
	C471.186798,288.493408 471.202698,328.486816 471.208008,368.480225 
	C471.208923,375.361176 471.150574,374.915375 464.319641,375.490845 
	C457.910431,376.030762 454.198364,373.578705 450.378906,368.473480 
	C406.362976,309.640717 362.062744,251.020676 317.827637,192.351913 
	C316.743073,190.913467 315.538940,189.565155 314.334656,188.107101 
	C312.471039,189.577560 313.171906,191.361053 313.170593,192.870117 
	C313.125519,245.194855 313.191956,297.519836 313.023254,349.844055 
	C313.007599,354.695831 314.970215,356.556854 319.268677,357.714539 
	C325.266296,359.329895 331.399353,359.844574 337.495850,360.464752 
	C342.037109,360.926758 341.070740,363.880554 341.227966,366.570190 
	C341.403625,369.576294 340.371490,371.247406 337.000305,371.237152 
	C314.670898,371.169220 292.341187,371.167725 270.011719,371.218933 
	C266.723663,371.226471 265.500305,369.691284 265.704376,366.615570 
	C265.880463,363.962036 264.801666,360.970459 269.368683,360.480072 
	C275.954834,359.772858 282.608093,359.320923 289.028503,357.302917 
	C292.361115,356.255463 293.840820,354.676025 293.835083,350.957794 
	C293.738617,288.634796 293.737366,226.311554 293.855652,163.988617 
	C293.863220,159.990921 292.132935,158.350235 288.679932,157.360428 
	C282.553589,155.604355 276.256989,154.873962 269.967133,154.498337 
	C265.309418,154.220169 265.845459,151.331696 265.661743,148.301010 
	C265.450378,144.813126 266.891968,143.622375 270.324707,143.650146 
	C284.821381,143.767395 299.320831,143.801758 313.816284,143.624649 
	C317.498596,143.579651 319.086029,145.839035 320.903992,148.248596 
	C346.995575,182.830582 373.103912,217.399948 399.205505,251.974396 
	C415.166779,273.116913 431.119690,294.265686 447.089722,315.401581 
	C448.248322,316.934967 449.515869,318.385986 450.830353,319.994781 
	C452.248718,318.231628 451.773712,316.682770 451.775085,315.262299 
	C451.822693,265.437225 451.751770,215.611740 451.979675,165.787613 
	C452.004395,160.382965 450.154724,158.017761 445.093414,156.863907 
	C439.379150,155.561203 433.602936,154.877319 427.817932,154.476486 
	C423.042175,154.145584 423.916168,151.020706 423.743896,148.104935 
	C423.553680,144.885178 424.973999,143.660446 428.160156,143.669342 
	C450.322968,143.731308 472.486237,143.740448 494.648926,143.655624 
	C498.116882,143.642365 499.461487,145.025238 499.318970,148.416046 
	C499.190399,151.475266 499.645203,154.301865 494.958588,154.497025 
	C488.829620,154.752258 482.726288,155.676086 476.728973,157.234497 
	C472.774902,158.261917 471.058014,160.106995 471.088776,164.517136 
	C471.281921,192.176941 471.178741,219.838806 471.174011,248.000000 
z"/>
</svg>