<?xml version="1.0" encoding="UTF-8" standalone="no" ?>
<!DOCTYPE svg PUBLIC "-//W3C//DTD SVG 1.1//EN" "http://www.w3.org/Graphics/SVG/1.1/DTD/svg11.dtd">
<svg xmlns="http://www.w3.org/2000/svg" xmlns:xlink="http://www.w3.org/1999/xlink" version="1.1" width="1080" height="1080" viewBox="0 0 1080 1080" xml:space="preserve">
<desc>Created with Fabric.js 5.2.4</desc>
<defs>
</defs>
<rect x="0" y="0" width="100%" height="100%" fill="transparent"></rect>
<g transform="matrix(1 0 0 1 540 540)" id="c98b9d17-ca94-4ce8-b5c5-3491ab870689"  >
<rect style="stroke: none; stroke-width: 1; stroke-dasharray: none; stroke-linecap: butt; stroke-dashoffset: 0; stroke-linejoin: miter; stroke-miterlimit: 4; fill: rgb(255,255,255); fill-rule: nonzero; opacity: 1; visibility: hidden;" vector-effect="non-scaling-stroke"  x="-540" y="-540" rx="0" ry="0" width="1080" height="1080" />
</g>
<g transform="matrix(1 0 0 1 540 540)" id="90d8bdda-b2ea-422f-a4d7-ff2dc113367b"  >
</g>
<g transform="matrix(1 0 0 1 540 540)"  >
<g style="" vector-effect="non-scaling-stroke"   >
		<g transform="matrix(1 0 0 1 -124.28 -2.13)"  >
<path style="stroke: none; stroke-width: 1; stroke-dasharray: none; stroke-linecap: butt; stroke-dashoffset: 0; stroke-linejoin: miter; stroke-miterlimit: 4; fill: rgb(255,255,255); fill-rule: nonzero; opacity: 1;" vector-effect="non-scaling-stroke"  transform=" translate(-133.18, -255.26)" d="M 124.764496 370.150024 C 90.001663 372.151093 55.67038 370.881897 21.35491 371.209198 C 18.43191 371.237061 15.637669 371.447388 15.595209 367.067474 C 15.557733 363.201721 15.607977 360.334229 20.791502 360.14502 C 26.91395 359.921539 33.038593 359.124603 38.965958 357.247375 C 42.254681 356.205811 43.741222 354.468536 43.735699 350.77536 C 43.642239 288.283783 43.636257 225.791962 43.764805 163.300507 C 43.773056 159.289062 41.889297 157.834564 38.592354 157.483704 C 33.309593 156.921509 28.021141 155.801773 22.676008 156.855835 C 17.812586 157.814896 16.222799 155.379532 15.755661 150.933319 C 15.251136 146.131271 18.201126 146.060455 21.568708 145.638 C 39.05743 143.444122 56.567039 141.36824 74.152626 140.257416 C 112.461136 137.837585 150.497025 138.475388 186.323029 154.825653 C 218.056824 169.308319 240.769363 192.149643 247.957047 227.256775 C 257.994415 276.282776 240.883896 315.223145 201.389847 344.776367 C 180.667175 360.28302 156.739334 367.335602 131.165695 369.352081 C 129.178894 369.508728 127.206917 369.853455 124.764496 370.150024 M 187.745438 331.25351 C 196.408646 324.019836 203.600021 315.587189 208.690308 305.456665 C 217.306351 288.309235 219.558899 270.23114 217.863174 251.193024 C 214.835587 217.201462 198.973175 191.263962 170.062042 173.605606 C 141.393539 156.095383 109.789787 152.941498 77.095985 156.443481 C 73.47448 156.83139 72.260498 158.700836 72.267723 162.452835 C 72.383461 222.581787 72.387894 282.71109 72.269135 342.840027 C 72.261078 346.914001 73.661568 348.656342 77.497993 349.828857 C 95.179779 355.23291 113.143486 355.812195 131.341339 353.742279 C 151.940857 351.3992 170.856796 344.833435 187.745438 331.25351 z" stroke-linecap="round" />
</g>
		<g transform="matrix(1 0 0 1 125.03 2.21)"  >
<path style="stroke: none; stroke-width: 1; stroke-dasharray: none; stroke-linecap: butt; stroke-dashoffset: 0; stroke-linejoin: miter; stroke-miterlimit: 4; fill: rgb(255,255,255); fill-rule: nonzero; opacity: 1;" vector-effect="non-scaling-stroke"  transform=" translate(-382.49, -259.59)" d="M 471.174011 248 C 471.186798 288.493408 471.202698 328.486816 471.208008 368.480225 C 471.208923 375.361176 471.150574 374.915375 464.319641 375.490845 C 457.910431 376.030762 454.198364 373.578705 450.378906 368.47348 C 406.362976 309.640717 362.062744 251.020676 317.827637 192.351913 C 316.743073 190.913467 315.53894 189.565155 314.334656 188.107101 C 312.471039 189.57756 313.171906 191.361053 313.170593 192.870117 C 313.125519 245.194855 313.191956 297.519836 313.023254 349.844055 C 313.007599 354.695831 314.970215 356.556854 319.268677 357.714539 C 325.266296 359.329895 331.399353 359.844574 337.49585 360.464752 C 342.037109 360.926758 341.07074 363.880554 341.227966 366.57019 C 341.403625 369.576294 340.37149 371.247406 337.000305 371.237152 C 314.670898 371.16922 292.341187 371.167725 270.011719 371.218933 C 266.723663 371.226471 265.500305 369.691284 265.704376 366.61557 C 265.880463 363.962036 264.801666 360.970459 269.368683 360.480072 C 275.954834 359.772858 282.608093 359.320923 289.028503 357.302917 C 292.361115 356.255463 293.84082 354.676025 293.835083 350.957794 C 293.738617 288.634796 293.737366 226.311554 293.855652 163.988617 C 293.86322 159.990921 292.132935 158.350235 288.679932 157.360428 C 282.553589 155.604355 276.256989 154.873962 269.967133 154.498337 C 265.309418 154.220169 265.845459 151.331696 265.661743 148.30101 C 265.450378 144.813126 266.891968 143.622375 270.324707 143.650146 C 284.821381 143.767395 299.320831 143.801758 313.816284 143.624649 C 317.498596 143.579651 319.086029 145.839035 320.903992 148.248596 C 346.995575 182.830582 373.103912 217.399948 399.205505 251.974396 C 415.166779 273.116913 431.11969 294.265686 447.089722 315.401581 C 448.248322 316.934967 449.515869 318.385986 450.830353 319.994781 C 452.248718 318.231628 451.773712 316.68277 451.775085 315.262299 C 451.822693 265.437225 451.75177 215.61174 451.979675 165.787613 C 452.004395 160.382965 450.154724 158.017761 445.093414 156.863907 C 439.37915 155.561203 433.602936 154.877319 427.817932 154.476486 C 423.042175 154.145584 423.916168 151.020706 423.743896 148.104935 C 423.55368 144.885178 424.973999 143.660446 428.160156 143.669342 C 450.322968 143.731308 472.486237 143.740448 494.648926 143.655624 C 498.116882 143.642365 499.461487 145.025238 499.31897 148.416046 C 499.190399 151.475266 499.645203 154.301865 494.958588 154.497025 C 488.82962 154.752258 482.726288 155.676086 476.728973 157.234497 C 472.774902 158.261917 471.058014 160.106995 471.088776 164.517136 C 471.281921 192.176941 471.178741 219.838806 471.174011 248 z" stroke-linecap="round" />
</g>
</g>
</g>
</svg>